{"title":"Harry Potter and the Deathly Hallows Part 2 (2011, Russian langu","uid":6539935,"size":1575874030,"categoryP":"video","categoryS":"movies","magnet":"?xt=urn:btih:5824a75a8d8864d06f0389854ecf8586be6f63b4&amp;dn=Harry+Potter+and+the+Deathly+Hallows+Part+2+%282011%2C+Russian+langu&amp;tr=udp%3A%2F%2Ftracker.openbittorrent.com%3A80&amp;tr=udp%3A%2F%2Fopen.demonii.com%3A1337&amp;tr=udp%3A%2F%2Ftracker.coppersurfer.tk%3A6969&amp;tr=udp%3A%2F%2Fexodus.desync.com%3A6969","seeders":1,"leechers":0,"uploader":".zc","files":-1,"time":1310653947,"description":"Harry Potter and the Deathly Hallows: Part 2\n\nLanguage: RUSSIAN\n\nSample included on torrent!\n\nGeneral\nComplete name                    : Harry Potter and the Deathly Hallows Part 2 [2011, Russian language] CamRip.avi\n\nFormat                           : AVI\nFormat/Info                      : Audio Video Interleave\nFile size                        : 1.46 GiB\nDuration                         : 1h 56mn\nOverall bit rate                 : 1 789 Kbps\nWriting application              : VirtualDubMod 1.5.10.3 | www.virtualdub-fr.org || (build 2550/release)\nWriting library                  : VirtualDubMod build 2550/release\n\nVideo\nID                               : 0\nFormat                           : MPEG-4 Visual\nFormat profile                   : Advanced Simple@L5\nFormat settings, BVOP            : 2\nFormat settings, QPel            : No\nFormat settings, GMC             : No warppoints\nFormat settings, Matrix          : Default (MPEG)\nCodec ID                         : XVID\nCodec ID/Hint                    : XviD\nDuration                         : 1h 56mn\nBit rate                         : 1 651 Kbps\nWidth                            : 720 pixels\nHeight                           : 304 pixels\nDisplay aspect ratio             : 2.35:1\nFrame rate                       : 25.000 fps\nColor space                      : YUV\nChroma subsampling               : 4:2:0\nBit depth                        : 8 bits\nScan type                        : Progressive\nCompression mode                 : Lossy\nBits/(Pixel*Frame)               : 0.302\nStream size                      : 1.35 GiB (92%)\nWriting library                  : XviD 1.2.1 (UTC 2008-12-04)\n\nAudio\nID                               : 1\nFormat                           : AC-3\nFormat/Info                      : Audio Coding 3\nMode extension                   : CM (complete main)\nCodec ID                         : 2000\nDuration                         : 1h 56mn\nBit rate mode                    : Constant\nBit rate                         : 128 Kbps\nChannel(s)                       : 2 channels\nChannel positions                : Front: L R\nSampling rate                    : 48.0 KHz\nBit depth                        : 16 bits\nCompression mode                 : Lossy\nStream size                      : 107 MiB (7%)\nAlignment                        : Split accross interleaves\nInterleave, duration             : 40 ms (1.00 video frame)\nInterleave, preload duration     : 500 ms","torrent":{"xt":"urn:btih:5824a75a8d8864d06f0389854ecf8586be6f63b4","amp;dn":"Harry+Potter+and+the+Deathly+Hallows+Part+2+%282011%2C+Russian+langu","amp;tr":["udp%3A%2F%2Ftracker.openbittorrent.com%3A80","udp%3A%2F%2Fopen.demonii.com%3A1337","udp%3A%2F%2Ftracker.coppersurfer.tk%3A6969","udp%3A%2F%2Fexodus.desync.com%3A6969"],"infoHash":"5824a75a8d8864d06f0389854ecf8586be6f63b4","infoHashBuffer":{"type":"Buffer","data":[88,36,167,90,141,136,100,208,111,3,137,133,78,207,133,134,190,111,99,180]},"announce":[],"urlList":[]}}